<?xml version="1.0" encoding="UTF-8"?> <svg xmlns="http://www.w3.org/2000/svg" id="Group_1_copy" data-name="Group 1 copy" width="172" height="50.969" viewBox="0 0 172 50.969"><defs><style> .cls-1 { fill: #fff; } .cls-1, .cls-2 { fill-rule: evenodd; } .cls-2 { fill: #fea040; } </style></defs><path id="Fabli" class="cls-1" d="M6.169,46.521A1.124,1.124,0,0,0,7,46.2a1.068,1.068,0,0,0,.323-0.784V33.975H21.206a1.124,1.124,0,0,0,.83-0.323,1.068,1.068,0,0,0,.323-0.784V29.639a1.106,1.106,0,0,0-1.153-1.153H7.322V19.722H22.129a1.17,1.17,0,0,0,.83-0.3,1.049,1.049,0,0,0,.323-0.807V15.386a1.106,1.106,0,0,0-1.153-1.153H2.11a1.068,1.068,0,0,0-.784.323,1.124,1.124,0,0,0-.323.83V45.414a1.066,1.066,0,0,0,.323.784,1.066,1.066,0,0,0,.784.323H6.169ZM37.42,46.5a8.276,8.276,0,0,0,2.468-1.269A8.019,8.019,0,0,0,41.5,43.615v1.8a1.108,1.108,0,0,0,.3.784,1.046,1.046,0,0,0,.807.323h3.736a1.1,1.1,0,0,0,1.107-1.107V30.93a10.454,10.454,0,0,0-.553-3.413A7.262,7.262,0,0,0,45.146,24.7a8.49,8.49,0,0,0-3.206-1.914,14.74,14.74,0,0,0-4.912-.715,13.335,13.335,0,0,0-4.567.692,10.116,10.116,0,0,0-3.067,1.684A7.314,7.314,0,0,0,27.641,26.5a4.55,4.55,0,0,0-.623,1.8,1.049,1.049,0,0,0,.254.738,0.981,0.981,0,0,0,.761.277h3.644a1.176,1.176,0,0,0,1.061-.6,4.114,4.114,0,0,1,1.545-1.776,4.911,4.911,0,0,1,2.7-.669A4.346,4.346,0,0,1,40.3,27.333a4.289,4.289,0,0,1,.969,3V31.3l-6.319.923a15.5,15.5,0,0,0-6.873,2.56,6.3,6.3,0,0,0-1.5,8.718,7.944,7.944,0,0,0,3.067,2.537,9.76,9.76,0,0,0,4.336.946A10.9,10.9,0,0,0,37.42,46.5Zm-3.9-4.244a3.723,3.723,0,0,1-1.591-1.061,2.542,2.542,0,0,1-.623-1.73,2.693,2.693,0,0,1,1.338-2.26A9.918,9.918,0,0,1,36.7,35.866l4.613-.738V36.1a7.859,7.859,0,0,1-.761,3.667,4.917,4.917,0,0,1-2.076,2.145,6.192,6.192,0,0,1-2.929.692A5.988,5.988,0,0,1,33.522,42.255Zm37.362,3.921a8.035,8.035,0,0,0,3-2.283,10.625,10.625,0,0,0,1.845-3.483A16.418,16.418,0,0,0,76.466,36q0.045-.83.046-1.5t-0.046-1.5a14.764,14.764,0,0,0-.692-4.29,10.71,10.71,0,0,0-1.868-3.483A8.371,8.371,0,0,0,70.884,22.9a10.046,10.046,0,0,0-4.244-.83,9.477,9.477,0,0,0-4.221.853,9.019,9.019,0,0,0-2.883,2.191V14.879a1.113,1.113,0,0,0-.3-0.784,1.051,1.051,0,0,0-.807-0.323H54.509A1.1,1.1,0,0,0,53.4,14.879V45.414a1.1,1.1,0,0,0,1.107,1.107h3.644a1.049,1.049,0,0,0,.807-0.323,1.111,1.111,0,0,0,.3-0.784V43.708A9.063,9.063,0,0,0,62.19,46.06a9.6,9.6,0,0,0,4.451.922A10.3,10.3,0,0,0,70.884,46.175Zm-9.018-5a5,5,0,0,1-1.707-2.237,9.266,9.266,0,0,1-.623-2.791q-0.046-.83-0.046-1.776t0.046-1.776a6.655,6.655,0,0,1,.646-2.652,5.379,5.379,0,0,1,1.753-2.1,5.012,5.012,0,0,1,3-.83,4.96,4.96,0,0,1,3.09.853A4.881,4.881,0,0,1,69.639,30.1a10.519,10.519,0,0,1,.6,3.044q0.045,1.384,0,2.768a10.519,10.519,0,0,1-.6,3.044,4.878,4.878,0,0,1-1.615,2.237A5.913,5.913,0,0,1,61.867,41.171Zm24.746,5.351a1.1,1.1,0,0,0,1.107-1.107V14.879a1.1,1.1,0,0,0-1.107-1.107H82.785a1.1,1.1,0,0,0-1.107,1.107V45.414a1.1,1.1,0,0,0,1.107,1.107h3.829Zm12.177,0A1.048,1.048,0,0,0,99.6,46.2a1.11,1.11,0,0,0,.3-0.784V23.643a1.113,1.113,0,0,0-.3-0.784,1.051,1.051,0,0,0-.807-0.323H94.962a1.1,1.1,0,0,0-1.107,1.107V45.414a1.1,1.1,0,0,0,1.107,1.107H98.79Zm0.184-27.953a1.124,1.124,0,0,0,.83-0.323,1.068,1.068,0,0,0,.323-0.784V14.14a1.07,1.07,0,0,0-.323-0.784,1.127,1.127,0,0,0-.83-0.323h-4.2A1.1,1.1,0,0,0,93.67,14.14v3.321a1.1,1.1,0,0,0,1.107,1.107h4.2Z" transform="translate(-1 -0.031)"></path><path class="cls-2" d="M165.556,47.814h-0.745a3.444,3.444,0,0,1-2.978-1.752l-0.053-.053a6.642,6.642,0,0,0-11.592,0l-0.053.053a3.339,3.339,0,0,1-2.978,1.752,3.425,3.425,0,0,1-3.4-3.4V39.848A41.384,41.384,0,0,0,123.92,4.535a22.114,22.114,0,0,1,5.9-1.275A38.545,38.545,0,0,1,148.54,36.184,2.857,2.857,0,0,0,150.72,39a2.936,2.936,0,0,0,3.3-1.434A25.514,25.514,0,0,0,132.534.021,25.5,25.5,0,1,0,131.524,51h0.053l1.808-.053a1.646,1.646,0,0,0,1.542-1.381A46.39,46.39,0,0,0,135.3,44.1,41.605,41.605,0,0,0,116.263,9.261a21.323,21.323,0,0,1,4.2-3.08c0.053,0.053.159,0.053,0.212,0.106a38.317,38.317,0,0,1,19.887,33.561v4.567A6.588,6.588,0,0,0,147.157,51a6.707,6.707,0,0,0,5.8-3.4l0.054-.053a3.336,3.336,0,0,1,2.977-1.752,3.279,3.279,0,0,1,2.978,1.752l0.053,0.053a6.6,6.6,0,0,0,5.8,3.4h0.745A1.593,1.593,0,1,0,165.556,47.814ZM153.8,24.183a21.853,21.853,0,0,1-2.127,10.886A41.7,41.7,0,0,0,135.991,3.685,22.447,22.447,0,0,1,153.8,24.183ZM131.843,39.955a38.169,38.169,0,0,1-18.664-10.249c-0.851-.85-1.649-1.7-2.393-2.6l-1.6-2.124a22.986,22.986,0,0,1,.851-5.735,42.882,42.882,0,0,0,3.829,4.407,41.955,41.955,0,0,0,16.75,10.2A40.057,40.057,0,0,1,131.843,39.955Zm0.053,7.859h-0.372a22.294,22.294,0,0,1-21.642-16.94c0.319,0.372.691,0.744,1.063,1.116A41.279,41.279,0,0,0,132.109,43.3v0.85C132.056,45.318,132,46.593,131.9,47.814Zm-2.552-17.79a38.546,38.546,0,0,1-13.188-8.6,37.1,37.1,0,0,1-4.36-5.2,1.247,1.247,0,0,0-.372-0.372,20.617,20.617,0,0,1,2.659-4.195A38.464,38.464,0,0,1,129.344,30.024ZM173,49.407a1.6,1.6,0,1,1-1.595-1.593A1.594,1.594,0,0,1,173,49.407Z" transform="translate(-1 -0.031)"></path></svg> 