<svg width="168" height="66" viewBox="0 0 168 66" fill="none" xmlns="http://www.w3.org/2000/svg">
<path d="M166.165 1.04319C166.553 0.984652 166.841 0.987388 167 1.04069L166.165 1.04319C162.891 1.53705 152.5 6.39219 152.5 22.0388C152.5 39.5454 139.5 54.0376 121 55.0376H13.5001C5.50026 55.0376 1.00015 60.0351 1 65.0371V1.5376L166.165 1.04319Z" fill="#F9F7F7"/>
<path d="M167 1.04069C165.5 0.537702 152.5 4.5376 152.5 22.0388C152.5 39.5454 139.5 54.0376 121 55.0376H13.5001C5.5 55.0376 0.999854 60.0355 1 65.0376V1.5376L167 1.04069Z" stroke="url(#paint0_linear_6016_30313)"/>
<defs>
<linearGradient id="paint0_linear_6016_30313" x1="74.5" y1="33" x2="65.5" y2="13" gradientUnits="userSpaceOnUse">
<stop stop-color="#A6B7FF"/>
<stop offset="1" stop-color="#F9F7F7"/>
</linearGradient>
</defs>
</svg>
