<svg width="223" height="55" viewBox="0 0 223 55" fill="none" xmlns="http://www.w3.org/2000/svg">
<path d="M1 1.50021C1.57933 1.42297 2.25264 1.41732 2.99114 1.49572L222.5 1C212 3 208.5 14.5 207.5 23.5002C207.9 45.5004 187.667 53.3335 177.5 54.5H49.5C38.5 54.5 19.097 44.9917 18.5 23.5002C18.0579 7.58561 8.6264 2.09392 2.99114 1.49572L1 1.50021Z" fill="#F9F7F7"/>
<path d="M1 1.50021C6 0.833546 18 5.5 18.5 23.5002C19.097 44.9917 38.5 54.5 49.5 54.5C58.3 54.5 138.5 54.5 177.5 54.5C187.667 53.3335 207.9 45.5004 207.5 23.5002C208.5 14.5 212 3 222.5 1L1 1.50021Z" stroke="url(#paint0_linear_6016_30373)"/>
<defs>
<linearGradient id="paint0_linear_6016_30373" x1="110.5" y1="4" x2="110.5" y2="1" gradientUnits="userSpaceOnUse">
<stop stop-color="#A6B7FF"/>
<stop offset="1" stop-color="#F9F7F7"/>
</linearGradient>
</defs>
</svg>
