<svg width="197" height="65" viewBox="0 0 197 65" fill="none" xmlns="http://www.w3.org/2000/svg">
<path d="M1.64369 1.03077C1.35629 0.99005 1.13719 0.989991 1 1.02913L1.64369 1.03077C5.04752 1.51303 18.033 7.69856 18.033 22.0149C18.033 39.4966 32.5 56.9885 55.0361 54.9943H181.316C190.714 54.9943 196 59.9889 196 64.988V1.52575L1.64369 1.03077Z" fill="#F9F7F7"/>
<path d="M1 1.02913C2.76205 0.526439 18.033 6.48975 18.033 22.0149C18.033 39.4966 32.5 56.9885 55.0361 54.9943H181.316C190.714 54.9943 196 59.9893 196 64.9885V1.52575L1 1.02913Z" stroke="url(#paint0_linear_6016_30386)"/>
<defs>
<linearGradient id="paint0_linear_6016_30386" x1="109.66" y1="32.9754" x2="117.683" y2="12.0151" gradientUnits="userSpaceOnUse">
<stop stop-color="#A6B7FF"/>
<stop offset="1" stop-color="#F9F7F7"/>
</linearGradient>
</defs>
</svg>
